<svg xmlns="http://www.w3.org/2000/svg" width="1200" height="720" viewBox="0 0 1200 720">
<defs>
<style><![CDATA[
text{font-family:Arial,Helvetica,sans-serif;fill:#222} .small{font-size:11px} .tick{font-size:10px;fill:#555} .label{font-size:12px;fill:#333} .title{font-size:16px;font-weight:700} .panelletter{font-size:18px;font-weight:700}
]]></style>
</defs>
<rect x="0" y="0" width="100%" height="100%" fill="white"/>
<text x="40.00" y="40.00" font-size="20" font-weight="700" text-anchor="start" fill="#222">Figure 2. Phase 2 recovery after oil-air disturbance</text>
<text x="40.00" y="64.00" font-size="12" font-weight="400" text-anchor="start" fill="#555">Corrected 56-242 h recovery window: brine reconnection, oil/air removal and pressure relaxation.</text>
<rect x="85.00" y="115.00" width="720.00" height="360.00" rx="0" fill="#F3E5E2" stroke="none" stroke-width="1" opacity="0.55"/>
<line x1="85.00" y1="475.00" x2="805.00" y2="475.00" stroke="#E7E7E7" stroke-width="0.8" opacity="1"/>
<text x="78.00" y="479.00" font-size="10" font-weight="400" text-anchor="end" fill="#555">0</text>
<line x1="85.00" y1="403.00" x2="805.00" y2="403.00" stroke="#E7E7E7" stroke-width="0.8" opacity="1"/>
<text x="78.00" y="407.00" font-size="10" font-weight="400" text-anchor="end" fill="#555">20</text>
<line x1="85.00" y1="331.00" x2="805.00" y2="331.00" stroke="#E7E7E7" stroke-width="0.8" opacity="1"/>
<text x="78.00" y="335.00" font-size="10" font-weight="400" text-anchor="end" fill="#555">40</text>
<line x1="85.00" y1="259.00" x2="805.00" y2="259.00" stroke="#E7E7E7" stroke-width="0.8" opacity="1"/>
<text x="78.00" y="263.00" font-size="10" font-weight="400" text-anchor="end" fill="#555">60</text>
<line x1="85.00" y1="187.00" x2="805.00" y2="187.00" stroke="#E7E7E7" stroke-width="0.8" opacity="1"/>
<text x="78.00" y="191.00" font-size="10" font-weight="400" text-anchor="end" fill="#555">80</text>
<line x1="85.00" y1="115.00" x2="805.00" y2="115.00" stroke="#E7E7E7" stroke-width="0.8" opacity="1"/>
<text x="78.00" y="119.00" font-size="10" font-weight="400" text-anchor="end" fill="#555">100</text>
<line x1="85.00" y1="115.00" x2="85.00" y2="475.00" stroke="#E7E7E7" stroke-width="0.55" opacity="1" stroke-dasharray="2 4"/>
<text x="85.00" y="491.00" font-size="10" font-weight="400" text-anchor="middle" fill="#555">56</text>
<line x1="146.94" y1="115.00" x2="146.94" y2="475.00" stroke="#E7E7E7" stroke-width="0.55" opacity="1" stroke-dasharray="2 4"/>
<text x="146.94" y="491.00" font-size="10" font-weight="400" text-anchor="middle" fill="#555">72</text>
<line x1="239.84" y1="115.00" x2="239.84" y2="475.00" stroke="#E7E7E7" stroke-width="0.55" opacity="1" stroke-dasharray="2 4"/>
<text x="239.84" y="491.00" font-size="10" font-weight="400" text-anchor="middle" fill="#555">96</text>
<line x1="332.74" y1="115.00" x2="332.74" y2="475.00" stroke="#E7E7E7" stroke-width="0.55" opacity="1" stroke-dasharray="2 4"/>
<text x="332.74" y="491.00" font-size="10" font-weight="400" text-anchor="middle" fill="#555">120</text>
<line x1="425.65" y1="115.00" x2="425.65" y2="475.00" stroke="#E7E7E7" stroke-width="0.55" opacity="1" stroke-dasharray="2 4"/>
<text x="425.65" y="491.00" font-size="10" font-weight="400" text-anchor="middle" fill="#555">144</text>
<line x1="565.00" y1="115.00" x2="565.00" y2="475.00" stroke="#E7E7E7" stroke-width="0.55" opacity="1" stroke-dasharray="2 4"/>
<text x="565.00" y="491.00" font-size="10" font-weight="400" text-anchor="middle" fill="#555">180</text>
<line x1="704.35" y1="115.00" x2="704.35" y2="475.00" stroke="#E7E7E7" stroke-width="0.55" opacity="1" stroke-dasharray="2 4"/>
<text x="704.35" y="491.00" font-size="10" font-weight="400" text-anchor="middle" fill="#555">216</text>
<line x1="805.00" y1="115.00" x2="805.00" y2="475.00" stroke="#E7E7E7" stroke-width="0.55" opacity="1" stroke-dasharray="2 4"/>
<text x="805.00" y="491.00" font-size="10" font-weight="400" text-anchor="middle" fill="#555">242</text>
<line x1="85.00" y1="475.00" x2="805.00" y2="475.00" stroke="#333" stroke-width="1" opacity="1"/>
<line x1="85.00" y1="115.00" x2="85.00" y2="475.00" stroke="#333" stroke-width="1" opacity="1"/>
<text x="445.00" y="513.00" font-size="12" font-weight="400" text-anchor="middle" fill="#222">Time after experiment start (h)</text>
<text x="41.00" y="295.00" font-size="12" font-weight="400" text-anchor="middle" fill="#222" transform="rotate(-90 41.00 295.00)">Occupancy (%)</text>
<text x="85.00" y="103.00" font-size="14" font-weight="700" text-anchor="start" fill="#222">a  Phase occupancy recovery</text>
<polyline points="85.00,316.60 115.97,324.52 146.94,267.28 193.39,221.56 239.84,205.00 332.74,188.44 425.65,187.00 565.00,185.92 704.35,184.48 750.81,162.88 781.77,155.32 805.00,150.28" fill="none" stroke="#4A86C8" stroke-width="2.2" stroke-linejoin="round" stroke-linecap="round" opacity="1"/>
<circle cx="85.00" cy="316.60" r="3.30" fill="#4A86C8" stroke="white" stroke-width="0.8" opacity="1"/>
<circle cx="115.97" cy="324.52" r="3.30" fill="#4A86C8" stroke="white" stroke-width="0.8" opacity="1"/>
<circle cx="146.94" cy="267.28" r="3.30" fill="#4A86C8" stroke="white" stroke-width="0.8" opacity="1"/>
<circle cx="193.39" cy="221.56" r="3.30" fill="#4A86C8" stroke="white" stroke-width="0.8" opacity="1"/>
<circle cx="239.84" cy="205.00" r="3.30" fill="#4A86C8" stroke="white" stroke-width="0.8" opacity="1"/>
<circle cx="332.74" cy="188.44" r="3.30" fill="#4A86C8" stroke="white" stroke-width="0.8" opacity="1"/>
<circle cx="425.65" cy="187.00" r="3.30" fill="#4A86C8" stroke="white" stroke-width="0.8" opacity="1"/>
<circle cx="565.00" cy="185.92" r="3.30" fill="#4A86C8" stroke="white" stroke-width="0.8" opacity="1"/>
<circle cx="704.35" cy="184.48" r="3.30" fill="#4A86C8" stroke="white" stroke-width="0.8" opacity="1"/>
<circle cx="750.81" cy="162.88" r="3.30" fill="#4A86C8" stroke="white" stroke-width="0.8" opacity="1"/>
<circle cx="781.77" cy="155.32" r="3.30" fill="#4A86C8" stroke="white" stroke-width="0.8" opacity="1"/>
<circle cx="805.00" cy="150.28" r="3.30" fill="#4A86C8" stroke="white" stroke-width="0.8" opacity="1"/>
<polyline points="85.00,313.72 115.97,349.72 146.94,396.52 193.39,424.60 239.84,441.16 332.74,463.84 425.65,464.20 565.00,464.56 704.35,465.28 750.81,467.08 781.77,466.36 805.00,465.64" fill="none" stroke="#8E8E8E" stroke-width="2.2" stroke-linejoin="round" stroke-linecap="round" opacity="1"/>
<circle cx="85.00" cy="313.72" r="3.30" fill="#8E8E8E" stroke="white" stroke-width="0.8" opacity="1"/>
<circle cx="115.97" cy="349.72" r="3.30" fill="#8E8E8E" stroke="white" stroke-width="0.8" opacity="1"/>
<circle cx="146.94" cy="396.52" r="3.30" fill="#8E8E8E" stroke="white" stroke-width="0.8" opacity="1"/>
<circle cx="193.39" cy="424.60" r="3.30" fill="#8E8E8E" stroke="white" stroke-width="0.8" opacity="1"/>
<circle cx="239.84" cy="441.16" r="3.30" fill="#8E8E8E" stroke="white" stroke-width="0.8" opacity="1"/>
<circle cx="332.74" cy="463.84" r="3.30" fill="#8E8E8E" stroke="white" stroke-width="0.8" opacity="1"/>
<circle cx="425.65" cy="464.20" r="3.30" fill="#8E8E8E" stroke="white" stroke-width="0.8" opacity="1"/>
<circle cx="565.00" cy="464.56" r="3.30" fill="#8E8E8E" stroke="white" stroke-width="0.8" opacity="1"/>
<circle cx="704.35" cy="465.28" r="3.30" fill="#8E8E8E" stroke="white" stroke-width="0.8" opacity="1"/>
<circle cx="750.81" cy="467.08" r="3.30" fill="#8E8E8E" stroke="white" stroke-width="0.8" opacity="1"/>
<circle cx="781.77" cy="466.36" r="3.30" fill="#8E8E8E" stroke="white" stroke-width="0.8" opacity="1"/>
<circle cx="805.00" cy="465.64" r="3.30" fill="#8E8E8E" stroke="white" stroke-width="0.8" opacity="1"/>
<polyline points="85.00,423.88 115.97,429.64 146.94,430.36 193.39,432.88 239.84,435.40 332.74,433.24 425.65,435.04 565.00,430.36 704.35,434.32 750.81,449.80 781.77,456.28 805.00,462.40" fill="none" stroke="#E2873B" stroke-width="2.2" stroke-linejoin="round" stroke-linecap="round" opacity="1"/>
<circle cx="85.00" cy="423.88" r="3.30" fill="#E2873B" stroke="white" stroke-width="0.8" opacity="1"/>
<circle cx="115.97" cy="429.64" r="3.30" fill="#E2873B" stroke="white" stroke-width="0.8" opacity="1"/>
<circle cx="146.94" cy="430.36" r="3.30" fill="#E2873B" stroke="white" stroke-width="0.8" opacity="1"/>
<circle cx="193.39" cy="432.88" r="3.30" fill="#E2873B" stroke="white" stroke-width="0.8" opacity="1"/>
<circle cx="239.84" cy="435.40" r="3.30" fill="#E2873B" stroke="white" stroke-width="0.8" opacity="1"/>
<circle cx="332.74" cy="433.24" r="3.30" fill="#E2873B" stroke="white" stroke-width="0.8" opacity="1"/>
<circle cx="425.65" cy="435.04" r="3.30" fill="#E2873B" stroke="white" stroke-width="0.8" opacity="1"/>
<circle cx="565.00" cy="430.36" r="3.30" fill="#E2873B" stroke="white" stroke-width="0.8" opacity="1"/>
<circle cx="704.35" cy="434.32" r="3.30" fill="#E2873B" stroke="white" stroke-width="0.8" opacity="1"/>
<circle cx="750.81" cy="449.80" r="3.30" fill="#E2873B" stroke="white" stroke-width="0.8" opacity="1"/>
<circle cx="781.77" cy="456.28" r="3.30" fill="#E2873B" stroke="white" stroke-width="0.8" opacity="1"/>
<circle cx="805.00" cy="462.40" r="3.30" fill="#E2873B" stroke="white" stroke-width="0.8" opacity="1"/>
<polyline points="85.00,469.96 115.97,469.96 146.94,469.60 193.39,469.24 239.84,468.16 332.74,466.72 425.65,465.64 565.00,462.40 704.35,458.08 750.81,459.88 781.77,461.32 805.00,462.40" fill="none" stroke="#3A9A5B" stroke-width="2.2" stroke-linejoin="round" stroke-linecap="round" opacity="1"/>
<circle cx="85.00" cy="469.96" r="3.30" fill="#3A9A5B" stroke="white" stroke-width="0.8" opacity="1"/>
<circle cx="115.97" cy="469.96" r="3.30" fill="#3A9A5B" stroke="white" stroke-width="0.8" opacity="1"/>
<circle cx="146.94" cy="469.60" r="3.30" fill="#3A9A5B" stroke="white" stroke-width="0.8" opacity="1"/>
<circle cx="193.39" cy="469.24" r="3.30" fill="#3A9A5B" stroke="white" stroke-width="0.8" opacity="1"/>
<circle cx="239.84" cy="468.16" r="3.30" fill="#3A9A5B" stroke="white" stroke-width="0.8" opacity="1"/>
<circle cx="332.74" cy="466.72" r="3.30" fill="#3A9A5B" stroke="white" stroke-width="0.8" opacity="1"/>
<circle cx="425.65" cy="465.64" r="3.30" fill="#3A9A5B" stroke="white" stroke-width="0.8" opacity="1"/>
<circle cx="565.00" cy="462.40" r="3.30" fill="#3A9A5B" stroke="white" stroke-width="0.8" opacity="1"/>
<circle cx="704.35" cy="458.08" r="3.30" fill="#3A9A5B" stroke="white" stroke-width="0.8" opacity="1"/>
<circle cx="750.81" cy="459.88" r="3.30" fill="#3A9A5B" stroke="white" stroke-width="0.8" opacity="1"/>
<circle cx="781.77" cy="461.32" r="3.30" fill="#3A9A5B" stroke="white" stroke-width="0.8" opacity="1"/>
<circle cx="805.00" cy="462.40" r="3.30" fill="#3A9A5B" stroke="white" stroke-width="0.8" opacity="1"/>
<line x1="890.00" y1="436.70" x2="1110.00" y2="436.70" stroke="#E7E7E7" stroke-width="0.8" opacity="1"/>
<text x="883.00" y="440.70" font-size="10" font-weight="400" text-anchor="end" fill="#555">10</text>
<line x1="890.00" y1="360.11" x2="1110.00" y2="360.11" stroke="#E7E7E7" stroke-width="0.8" opacity="1"/>
<text x="883.00" y="364.11" font-size="10" font-weight="400" text-anchor="end" fill="#555">11</text>
<line x1="890.00" y1="283.51" x2="1110.00" y2="283.51" stroke="#E7E7E7" stroke-width="0.8" opacity="1"/>
<text x="883.00" y="287.51" font-size="10" font-weight="400" text-anchor="end" fill="#555">12</text>
<line x1="890.00" y1="206.91" x2="1110.00" y2="206.91" stroke="#E7E7E7" stroke-width="0.8" opacity="1"/>
<text x="883.00" y="210.91" font-size="10" font-weight="400" text-anchor="end" fill="#555">13</text>
<line x1="890.00" y1="130.32" x2="1110.00" y2="130.32" stroke="#E7E7E7" stroke-width="0.8" opacity="1"/>
<text x="883.00" y="134.32" font-size="10" font-weight="400" text-anchor="end" fill="#555">14</text>
<line x1="890.00" y1="115.00" x2="890.00" y2="475.00" stroke="#E7E7E7" stroke-width="0.55" opacity="1" stroke-dasharray="2 4"/>
<text x="890.00" y="491.00" font-size="10" font-weight="400" text-anchor="middle" fill="#555">56</text>
<line x1="937.31" y1="115.00" x2="937.31" y2="475.00" stroke="#E7E7E7" stroke-width="0.55" opacity="1" stroke-dasharray="2 4"/>
<text x="937.31" y="491.00" font-size="10" font-weight="400" text-anchor="middle" fill="#555">96</text>
<line x1="994.09" y1="115.00" x2="994.09" y2="475.00" stroke="#E7E7E7" stroke-width="0.55" opacity="1" stroke-dasharray="2 4"/>
<text x="994.09" y="491.00" font-size="10" font-weight="400" text-anchor="middle" fill="#555">144</text>
<line x1="1079.25" y1="115.00" x2="1079.25" y2="475.00" stroke="#E7E7E7" stroke-width="0.55" opacity="1" stroke-dasharray="2 4"/>
<text x="1079.25" y="491.00" font-size="10" font-weight="400" text-anchor="middle" fill="#555">216</text>
<line x1="1110.00" y1="115.00" x2="1110.00" y2="475.00" stroke="#E7E7E7" stroke-width="0.55" opacity="1" stroke-dasharray="2 4"/>
<text x="1110.00" y="491.00" font-size="10" font-weight="400" text-anchor="middle" fill="#555">242</text>
<line x1="890.00" y1="475.00" x2="1110.00" y2="475.00" stroke="#333" stroke-width="1" opacity="1"/>
<line x1="890.00" y1="115.00" x2="890.00" y2="475.00" stroke="#333" stroke-width="1" opacity="1"/>
<text x="846.00" y="295.00" font-size="12" font-weight="400" text-anchor="middle" fill="#222" transform="rotate(-90 846.00 295.00)">Relative pressure response</text>
<text x="890.00" y="103.00" font-size="14" font-weight="700" text-anchor="start" fill="#222">b  Hydraulic response</text>
<polyline points="890.00,206.91 899.46,325.64 908.92,298.83 923.12,272.02 937.31,245.21 965.70,199.26 994.09,195.43 1036.67,187.00 1079.25,203.09 1093.44,222.23 1102.90,233.72 1110.00,245.21" fill="none" stroke="#D62728" stroke-width="2.4" stroke-linejoin="round" stroke-linecap="round" opacity="1"/>
<circle cx="890.00" cy="206.91" r="3.30" fill="#D62728" stroke="white" stroke-width="0.8" opacity="1"/>
<circle cx="899.46" cy="325.64" r="3.30" fill="#D62728" stroke="white" stroke-width="0.8" opacity="1"/>
<circle cx="908.92" cy="298.83" r="3.30" fill="#D62728" stroke="white" stroke-width="0.8" opacity="1"/>
<circle cx="923.12" cy="272.02" r="3.30" fill="#D62728" stroke="white" stroke-width="0.8" opacity="1"/>
<circle cx="937.31" cy="245.21" r="3.30" fill="#D62728" stroke="white" stroke-width="0.8" opacity="1"/>
<circle cx="965.70" cy="199.26" r="3.30" fill="#D62728" stroke="white" stroke-width="0.8" opacity="1"/>
<circle cx="994.09" cy="195.43" r="3.30" fill="#D62728" stroke="white" stroke-width="0.8" opacity="1"/>
<circle cx="1036.67" cy="187.00" r="3.30" fill="#D62728" stroke="white" stroke-width="0.8" opacity="1"/>
<circle cx="1079.25" cy="203.09" r="3.30" fill="#D62728" stroke="white" stroke-width="0.8" opacity="1"/>
<circle cx="1093.44" cy="222.23" r="3.30" fill="#D62728" stroke="white" stroke-width="0.8" opacity="1"/>
<circle cx="1102.90" cy="233.72" r="3.30" fill="#D62728" stroke="white" stroke-width="0.8" opacity="1"/>
<circle cx="1110.00" cy="245.21" r="3.30" fill="#D62728" stroke="white" stroke-width="0.8" opacity="1"/>
<rect x="85.00" y="516.00" width="15.00" height="9.00" rx="0" fill="#4A86C8" stroke="none" stroke-width="1" opacity="1"/>
<text x="105.00" y="525.00" font-size="11" font-weight="400" text-anchor="start" fill="#333">Brine</text>
<rect x="265.00" y="516.00" width="15.00" height="9.00" rx="0" fill="#8E8E8E" stroke="none" stroke-width="1" opacity="1"/>
<text x="285.00" y="525.00" font-size="11" font-weight="400" text-anchor="start" fill="#333">Air</text>
<rect x="445.00" y="516.00" width="15.00" height="9.00" rx="0" fill="#E2873B" stroke="none" stroke-width="1" opacity="1"/>
<text x="465.00" y="525.00" font-size="11" font-weight="400" text-anchor="start" fill="#333">Oil/disconnected oil</text>
<rect x="625.00" y="516.00" width="15.00" height="9.00" rx="0" fill="#3A9A5B" stroke="none" stroke-width="1" opacity="1"/>
<text x="645.00" y="525.00" font-size="11" font-weight="400" text-anchor="start" fill="#333">Biomass</text>
<rect x="805.00" y="516.00" width="15.00" height="9.00" rx="0" fill="#D62728" stroke="none" stroke-width="1" opacity="1"/>
<text x="825.00" y="525.00" font-size="11" font-weight="400" text-anchor="start" fill="#333">Pressure</text>
<text x="85.00" y="590.00" font-size="15" font-weight="700" text-anchor="start" fill="#222">Recovery over 56→242 h</text>
<line x1="330.00" y1="600.00" x2="330.00" y2="670.00" stroke="#333" stroke-width="1" opacity="1"/>
<rect x="330.00" y="589.00" width="212.52" height="11.00" rx="0" fill="#4A86C8" stroke="none" stroke-width="1" opacity="0.86"/>
<text x="318.00" y="598.00" font-size="11" font-weight="400" text-anchor="end" fill="#222">Brine</text>
<text x="550.52" y="598.00" font-size="11" font-weight="400" text-anchor="start" fill="#333">+46.2 pp</text>
<rect x="135.88" y="607.00" width="194.12" height="11.00" rx="0" fill="#8E8E8E" stroke="none" stroke-width="1" opacity="0.86"/>
<text x="318.00" y="616.00" font-size="11" font-weight="400" text-anchor="end" fill="#222">Air</text>
<text x="338.00" y="616.00" font-size="11" font-weight="400" text-anchor="start" fill="#333">-42.2 pp</text>
<rect x="280.78" y="625.00" width="49.22" height="11.00" rx="0" fill="#E2873B" stroke="none" stroke-width="1" opacity="0.86"/>
<text x="318.00" y="634.00" font-size="11" font-weight="400" text-anchor="end" fill="#222">Oil</text>
<text x="338.00" y="634.00" font-size="11" font-weight="400" text-anchor="start" fill="#333">-10.7 pp</text>
<rect x="330.00" y="643.00" width="9.66" height="11.00" rx="0" fill="#3A9A5B" stroke="none" stroke-width="1" opacity="0.86"/>
<text x="318.00" y="652.00" font-size="11" font-weight="400" text-anchor="end" fill="#222">Biomass</text>
<text x="347.66" y="652.00" font-size="11" font-weight="400" text-anchor="start" fill="#333">+2.1 pp</text>
<text x="690.00" y="612.00" font-size="12" font-weight="400" text-anchor="start" fill="#333">Key reading: the apparent biological response is embedded in a much larger</text>
<text x="690.00" y="632.00" font-size="12" font-weight="400" text-anchor="start" fill="#333">capillary/hydraulic recovery: brine gains ~46 pp while air and oil collapse.</text>
</svg>